<?xml version="1.0" encoding="UTF-8"?>
<svg width="91px" height="29px" viewBox="0 0 91 29" version="1.1" xmlns="http://www.w3.org/2000/svg" xmlns:xlink="http://www.w3.org/1999/xlink">
    <!-- Generator: Sketch 43.1 (39012) - http://www.bohemiancoding.com/sketch -->
    <title>Group 6</title>
    <desc>Created with Sketch.</desc>
    <defs></defs>
    <g id="Page-1" stroke="none" stroke-width="1" fill="none" fill-rule="evenodd">
        <g id="着陆页" transform="translate(-57.000000, -28.000000)" fill-rule="nonzero">
            <g id="Group-6" transform="translate(57.000000, 28.000000)">
                <path d="M18.2,3.24200342 L20.5506999,3.24200342 L20.5506999,21.8673699 L18.2,21.8673699 L18.2,3.24200342 Z M22.3585428,15.6588344 C22.3585428,12.2533795 25.1311447,9.45029892 28.5668383,9.45029892 C32.002532,9.45029892 34.7753738,12.2531395 34.7753738,15.6588344 C34.7753738,16.0807364 34.7151364,16.4726397 34.654899,16.8338244 L24.8599563,16.8338244 C25.3420957,18.4009576 26.8189928,19.5466688 28.5668383,19.5466688 C29.6518321,19.5466688 30.616351,19.0940481 31.3396802,18.4016776 L34.1427608,18.4016776 C33.1480032,20.4509503 31.0082543,21.8673699 28.5673183,21.8673699 C25.1313847,21.8671299 22.3585428,19.0940481 22.3585428,15.6588344 Z M24.8599563,14.5131232 L32.2742004,14.5131232 C31.7615822,12.94647 30.2851651,11.8012388 28.5673183,11.8012388 C26.8189928,11.8012388 25.3420957,12.94671 24.8599563,14.5131232 Z M48.0957663,9.45053891 L43.3641279,15.6590744 L48.0957663,21.8673699 L45.1722109,21.8673699 L41.8874708,17.5571535 L38.6024908,21.8671299 L35.6791753,21.8671299 L40.4105738,15.6588344 L35.6791753,9.45029892 L38.6024908,9.45029892 L41.8874708,13.7300366 L45.1724509,9.45029892 L48.0957663,9.45029892 L48.0957663,9.45053891 Z M49.9036093,12.524328 C49.9036093,7.37078752 54.0926308,3.21176471 59.2464113,3.21176471 C63.2844792,3.21176471 66.7208928,5.80365428 68.0163576,9.4203002 L65.4847055,9.4203002 C64.3397143,7.12983778 61.9587757,5.53246584 59.2464113,5.53246584 C55.3888156,5.53246584 52.2543092,8.66721228 52.2543092,12.5245679 C52.2543092,16.3821636 55.3888156,19.5164301 59.2464113,19.5164301 C61.9587757,19.5164301 64.3399543,17.9192981 65.4847055,15.6285957 L68.0163576,15.6285957 C66.7208928,19.2447616 63.2844792,21.8366512 59.2464113,21.8366512 C54.0928708,21.8366512 49.9036093,17.6776284 49.9036093,12.524328 Z M69.8242006,3.24200342 L72.1749005,3.24200342 L72.1749005,21.8673699 L69.8242006,21.8673699 L69.8242006,3.24200342 Z M76.3334433,7.09983906 L73.9827435,7.09983906 L73.9827435,4.77937792 L76.3334433,4.77937792 L76.3334433,7.09983906 Z M73.9827435,9.45053891 L76.3334433,9.45053891 L76.3334433,21.8673699 L73.9827435,21.8673699 L73.9827435,9.45053891 Z M90.5581173,15.6588344 C90.5581173,19.0938081 87.7852754,21.8671299 84.3500618,21.8671299 C82.8731647,21.8671299 81.5165025,21.3545118 80.4624674,20.5107077 L80.4624674,28.0754254 L78.1417663,28.0754254 L78.1417663,15.6588344 C78.1417663,12.2533795 80.9143681,9.45029892 84.3500618,9.45029892 C87.7855154,9.45053891 90.5581173,12.2531395 90.5581173,15.6588344 Z M88.2374162,15.6588344 C88.2374162,13.5190856 86.4898106,11.8009988 84.3500618,11.8009988 C82.2103129,11.8009988 80.4624674,13.5190856 80.4624674,15.6588344 C80.4624674,17.7985833 82.2103129,19.5464288 84.3500618,19.5464288 C86.4898106,19.5464288 88.2374162,17.7985833 88.2374162,15.6588344 Z" id="LOGO" fill="#344750"></path>
                <path d="M6.12693897,0.00127994547 C2.74284315,0.00127994547 -3.55271368e-15,2.74316313 -3.55271368e-15,6.12773894 C-3.55271368e-15,6.12773894 0.0266388651,6.82490923 -3.55271368e-15,9.35272154 C2.96291377,0.148393678 15.6238144,11.1843235 17.1616689,0.00127994547 C16.4515391,-0.00159993184 6.12693897,0.00127994547 6.12693897,0.00127994547 Z M4.87467232,7.96846052 C2.18174705,7.96846052 -3.55271368e-15,10.1518875 -3.55271368e-15,12.8426529 C-3.55271368e-15,12.8426529 0.0239989776,13.9677249 0.0326386095,14.9000852 C0.0215990798,14.9212043 0.0110395297,14.9408835 -3.55271368e-15,14.9622426 C-3.55271368e-15,14.9622426 0.00311986708,15.3805447 0.00719969327,16.0201175 C0.00503978529,16.030437 0.00215990798,16.0395567 -3.55271368e-15,16.0498762 C0.00263988753,16.0719553 0.00527977506,16.0877946 0.00767967282,16.0997941 C0.0196791616,18.0549908 0.0379183845,21.899867 -3.55271368e-15,22.4676828 C5.93182728,21.5362825 4.85115332,16.1362725 4.98194775,12.4920278 C8.59859367,12.3842724 12.9061702,13.3922294 13.6525384,7.96822053 C13.0864025,7.96726057 4.87467232,7.96846052 4.87467232,7.96846052 Z" id="LOGO" fill="#FF782D"></path>
            </g>
        </g>
    </g>
</svg>